<?xml version="1.0" encoding="UTF-8" standalone="no"?>
<svg xmlns="http://www.w3.org/2000/svg" width="1280" height="400" viewBox="0 0 1280 400" role="img" aria-label="TrueTax logo">
<rect x="80" y="60" width="280" height="280" rx="64" fill="none" stroke="#A3E635" stroke-width="26"/><g fill="none" stroke="#A3E635" stroke-linecap="round" stroke-linejoin="round"><path d="M 140 212 L 205 277 L 284 152" stroke-width="34"/><path d="M 300 130 L 314 111" stroke-width="16"/></g><circle cx="322" cy="100" r="17" fill="#A3E635"/>
<g fill="#FFFFFF"><path transform="translate(430.00,255.00) scale(0.150000,-0.150000)" d="M587 705V549H399V0H203V549H17V705Z"/><path transform="translate(518.60,255.00) scale(0.150000,-0.150000)" d="M433 566V357H378Q314 357 283.0 332.0Q252 307 252 245V0H56V561H252V462Q285 510 332.0 538.0Q379 566 433 566Z"/><path transform="translate(583.65,255.00) scale(0.150000,-0.150000)" d="M630 561V0H433V80Q408 42 364.0 18.5Q320 -5 263 -5Q165 -5 108.5 59.5Q52 124 52 235V561H247V260Q247 212 272.5 184.5Q298 157 340 157Q383 157 408.0 184.5Q433 212 433 260V561Z"/><path transform="translate(684.55,255.00) scale(0.150000,-0.150000)" d="M589 241H218Q221 195 243.5 172.5Q266 150 301 150Q350 150 371 194H580Q567 136 529.5 90.5Q492 45 435.0 19.0Q378 -7 309 -7Q226 -7 161.5 28.0Q97 63 60.5 128.0Q24 193 24 281Q24 369 60.0 433.5Q96 498 160.5 533.0Q225 568 309 568Q392 568 456.0 534.0Q520 500 556.0 436.5Q592 373 592 287Q592 264 589 241ZM392 336Q392 372 368.0 392.5Q344 413 308 413Q272 413 249.0 393.5Q226 374 219 336Z"/></g><g fill="#A3E635"><path transform="translate(774.95,255.00) scale(0.150000,-0.150000)" d="M587 705V549H399V0H203V549H17V705Z"/><path transform="translate(863.55,255.00) scale(0.150000,-0.150000)" d="M263 568Q321 568 363.0 545.0Q405 522 428 483V561H624V0H428V78Q405 39 362.5 16.0Q320 -7 263 -7Q196 -7 141.5 28.0Q87 63 55.5 128.5Q24 194 24 281Q24 368 55.5 433.0Q87 498 141.5 533.0Q196 568 263 568ZM326 397Q282 397 253.0 366.5Q224 336 224 281Q224 227 253.0 195.5Q282 164 326 164Q369 164 398.5 195.0Q428 226 428 281Q428 335 398.5 366.0Q369 397 326 397Z"/><path transform="translate(963.55,255.00) scale(0.150000,-0.150000)" d="M406 0 305 141 225 0H10L197 291L2 561H222L323 420L404 561H619L428 275L626 0Z"/></g>
</svg>
